
<svg xmlns="http://www.w3.org/2000/svg" viewBox="0 0 54628 12700"><path fill="#141414" d="M845 10753h1610c839 32 973-193 942-1050l3-2705c-17-482 280-636 719-604l2473-6c374-5 492-122 496-488l-3-1366c17-357-120-454-493-469l-2743-1c-300-19-398-119-439-467l4-1339c9-337 165-529 514-581l3778 3c424-23 550-164 580-613V557c-28-359-158-524-559-557H774C254 35-17 308 1 837v9039c37 625 218 887 844 877z"/><path fill="#B23A2E" d="M4192 2120h4307c3481 192 4069 5087 570 6017-102 69-73 150-2 240l2363 2288c281 292 299 791-32 1031l-1007 851c-422 229-775 213-1086-134L5519 8569c-124-119-169-179-329-219l-1043-2c-253-3-327-100-316-363v-932c2-183 68-270 271-262l2649 8c554-12 681-181 735-685l-8-1785c-24-402-166-642-646-699l-2707-5c-270 8-305-48-305-332v-911c36-224 150-273 372-262z"/><path fill="#8F8F8F" d="M16355 10753V8132h1162c234 0 411 24 533 71 121 47 218 130 291 249s109 251 109 395c0 186-60 342-181 470-120 127-306 209-557 243 92 44 161 88 209 131 101 93 197 209 288 348l456 714h-436l-347-546c-101-157-185-277-251-360-65-84-124-143-176-176-51-33-104-56-158-70-39-8-103-12-193-12h-402v1164h-347zm347-1464h745c158 0 283-17 372-50 90-33 158-85 204-157s69-150 69-235c0-124-44-226-134-306s-232-119-427-119h-829v867zm3385 852l333 41c-53 195-150 346-291 453-142 107-324 161-544 161-278 0-498-86-660-257-163-171-244-410-244-719 0-320 82-568 246-744 165-177 378-265 640-265 254 0 462 87 622 259 161 173 242 417 242 730 0 19-1 48-2 86h-1416c12 208 71 368 177 479s238 166 397 166c118 0 218-31 302-93s149-161 198-297zm-1056-520h1060c-14-159-55-280-122-359-102-124-235-186-398-186-148 0-272 49-373 148s-156 231-167 397zm1702 1859V8854h293v247c69-97 147-169 234-217 87-49 192-73 316-73 162 0 305 42 429 125 125 84 218 201 281 353s95 319 95 500c0 194-35 369-105 525s-171 275-304 358c-133 82-273 124-419 124-108 0-203-23-289-68-85-45-155-103-210-172v924h-321zm291-1666c0 244 49 425 148 542s219 175 359 175c143 0 266-60 368-182 102-120 153-308 153-562 0-242-50-423-149-543-100-121-219-181-357-181-137 0-259 64-364 192-106 128-158 315-158 559zm1625-11c0-351 97-612 293-781 163-140 362-211 597-211 261 0 475 85 640 257 166 171 249 407 249 708 0 245-37 437-110 577s-180 249-320 327c-140 77-293 116-459 116-265 0-480-85-644-256-164-170-246-416-246-737zm331 0c0 244 53 426 159 546 106 122 240 182 400 182s293-61 399-182c106-122 159-307 159-556 0-235-53-413-160-534s-239-181-398-181c-160 0-294 60-400 180-106 121-159 302-159 545zm1767 950V8854h289v288c74-134 142-224 205-266 62-43 131-65 206-65 109 0 219 35 331 104l-111 299c-78-47-157-70-236-70-70 0-133 21-189 63-56 43-96 101-120 176-36 115-54 240-54 376v994h-321zm2090-288l46 284c-90 19-171 29-243 29-117 0-207-19-272-56-64-36-109-85-135-146-26-59-40-186-40-379V9104h-236v-250h236v-470l320-193v663h324v250h-324v1111c0 92 6 150 17 177 12 26 30 46 55 62 26 16 63 24 110 24 36 0 83-5 142-13zm371-1963v-370h322v370h-322zm0 2251V8854h322v1899h-322zm812 0V8854h289v270c140-209 341-313 604-313 115 0 220 21 316 62s168 95 215 162c49 66 82 146 101 237 12 60 18 165 18 313v1168h-322V9598c0-131-13-229-38-294s-69-117-133-156-138-58-224-58c-137 0-255 44-355 131s-149 251-149 495v1037h-322zm1977 157l313 47c13 96 50 166 109 211 80 59 189 89 327 89 149 0 264-30 345-89 82-60 136-144 165-250 17-66 24-204 23-414-141 166-316 249-526 249-261 0-463-94-606-283-142-188-214-414-214-677 0-181 33-349 98-502 66-153 161-271 285-355 125-83 271-125 439-125 224 0 409 91 554 272v-229h297v1641c0 296-30 506-90 629s-155 221-286 292c-131 72-291 107-482 107-227 0-410-51-549-153-140-102-207-255-202-460zm266-1140c0 249 50 431 149 545s223 171 372 171c148 0 271-57 371-170 101-114 151-292 151-536 0-232-52-408-155-525-103-118-227-177-373-177-142 0-264 58-365 174-100 116-150 289-150 518zm2884 983V8854h287v266c60-92 139-167 238-224 99-56 212-85 338-85 141 0 256 29 346 88 90 58 153 140 190 245 151-222 346-333 586-333 189 0 334 53 435 157s152 265 152 481v1304h-320V9557c0-129-10-222-31-279-21-56-59-101-113-136-55-34-120-52-194-52-134 0-244 44-332 134-88 88-133 230-133 426v1103h-322V9520c0-144-26-251-78-323-53-71-138-107-258-107-90 0-174 24-251 72-76 47-133 117-167 209-35 92-52 224-52 397v985h-321zm4239 0v-279c-148 215-349 322-603 322-111 0-216-22-314-65-96-42-169-97-216-161-47-66-80-145-99-239-13-63-20-163-20-301V8854h322v1053c0 168 7 281 20 340 20 85 63 151 128 199 66 49 147 72 244 72 96 0 187-24 271-73 85-50 145-118 180-202 35-86 53-210 53-371V8854h321v1899h-287zm663-567l318-50c18 127 68 225 150 293 81 68 195 102 342 102 148 0 258-30 329-90 71-61 107-131 107-212 1-73-31-130-95-172-44-29-154-65-329-108-235-60-399-112-490-156-91-43-161-103-208-180s-71-162-71-255c0-84 20-163 59-235s92-132 158-180c50-36 118-68 204-94 87-25 180-38 279-38 149 0 279 22 392 65 113 42 196 100 250 174 53 73 90 171 110 294l-314 43c-15-98-56-174-125-229-68-55-165-82-290-82-148 0-253 24-316 73-64 49-95 106-95 172 0 42 13 79 39 112 27 35 67 63 124 87 32 11 127 39 284 81 228 61 386 111 476 150 90 38 161 95 212 169 52 74 77 165 77 275 0 107-32 208-94 303-63 95-153 168-271 220-117 52-251 78-400 78-247 0-435-52-564-154-130-103-212-255-248-456zm2662 279l47 284c-91 19-172 29-243 29-117 0-208-19-272-56-65-36-110-85-136-146-26-59-40-186-40-379V9104h-236v-250h236v-470l321-193v663h323v250h-323v1111c0 92 5 150 16 177 12 26 30 46 56 62 25 16 62 24 110 24 36 0 83-5 141-13zm1739 288h-299V8132h322v935c136-171 309-256 520-256 117 0 227 24 332 71 104 47 190 113 257 198 67 86 121 188 158 309 39 120 58 249 58 386 0 325-81 577-242 754-160 178-354 267-579 267-224 0-400-94-527-281v238zm-4-964c0 228 31 392 93 493 101 166 238 249 411 249 141 0 263-61 365-183 103-122 154-304 154-547 0-247-50-430-148-548s-217-177-356-177c-141 0-263 61-365 183-103 122-154 299-154 530zm3027 353l332 41c-52 195-149 345-291 453-142 107-323 160-543 160-278 0-498-85-661-256s-244-411-244-719c0-320 83-568 247-744 165-177 377-265 640-265 254 0 461 87 622 259 161 173 241 416 241 729 0 20 0 49-1 87l-1416-1c11 209 71 369 177 480s238 166 396 166c118 0 219-31 303-93 83-62 149-161 198-297zm-1056-520h1059c-14-160-54-280-121-359-102-124-236-186-398-186-148 0-273 49-373 148-101 99-157 231-167 397zm2885 1131V8132h1768v309h-1421v812h1230v309h-1230v1191h-347zm3142-235c-120 102-235 173-344 215-111 42-229 63-356 63-208 0-368-51-481-153-111-102-167-233-167-391 0-93 20-178 63-255 42-77 98-138 166-185 69-46 146-81 232-105 63-17 158-33 286-48 260-32 451-68 574-111 1-44 2-72 2-84 0-131-31-224-92-277-82-73-204-109-366-109-151 0-263 26-336 79-72 53-125 147-160 282l-314-43c29-135 76-244 141-326 65-83 161-147 285-192 123-44 267-67 430-67s294 20 395 57c102 39 176 86 224 144s81 131 100 219c11 55 16 154 16 297v429c0 300 7 489 21 568 13 79 41 155 81 228h-336c-33-67-55-145-64-235zm-27-718c-117 48-292 88-526 122-132 18-226 40-280 64-55 23-98 58-127 105-30 45-45 96-45 152 0 86 33 158 97 215 65 57 160 85 285 85 124 0 235-26 331-81 96-54 168-128 213-222 35-73 52-180 52-322v-118zm695 386l318-50c18 127 68 225 150 293 81 68 195 102 342 102 148 0 258-30 329-90 72-61 108-131 108-212 0-73-32-130-96-172-44-29-153-65-329-108-235-60-399-112-490-156-91-43-161-103-208-180s-70-162-70-255c0-84 19-163 58-235s92-132 158-180c50-36 119-68 205-94 86-25 179-38 278-38 149 0 279 22 392 65 113 42 196 100 250 174 54 73 90 171 110 294l-314 43c-15-98-56-174-124-229-69-55-166-82-291-82-148 0-253 24-316 73s-95 106-95 172c0 42 13 79 39 112 27 35 68 63 124 87 32 11 127 39 284 81 228 61 386 111 476 150 90 38 161 95 212 169 52 74 77 165 77 275 0 107-31 208-94 303-62 95-153 168-271 220-117 52-251 78-400 78-247 0-435-52-564-154-130-103-212-255-248-456zm2662 279l47 284c-91 19-172 29-243 29-117 0-208-19-272-56-64-36-110-85-136-146-26-59-40-186-40-379V9104h-236v-250h236v-470l321-193v663h323v250h-323v1111c0 92 5 150 16 177 12 26 30 46 56 62s62 24 110 24c36 0 83-5 141-13zm542-363l-99-1389v-581h399v581l-93 1389h-207zm-85 651v-367h371v367h-371z"/><path fill="#141414" d="M16354 6267V1681h3145v776h-2218v1085h1915v776h-1915v1949h-927zm4120-2309l-798-144c90-321 244-558 463-713 220-154 544-232 976-232 393 0 684 47 876 140s327 210 405 354c78 143 118 404 118 787l-10 1026c0 291 14 507 43 646 28 138 81 287 158 445h-871c-22-58-51-145-84-259-14-53-25-87-31-104-150 147-311 256-482 329-170 73-353 109-547 109-342 0-612-93-809-278s-296-420-296-704c0-187 45-355 135-502 90-148 216-260 377-338s395-146 699-205c410-77 696-149 854-216v-87c0-170-42-290-125-362-84-72-241-108-472-108-157 0-279 31-367 93-87 61-158 169-212 323zm1176 714c-112 37-291 82-535 134-244 53-403 104-479 153-114 82-172 185-172 310 0 124 46 229 138 319s208 135 350 135c159 0 310-53 454-156 107-79 176-176 209-292 24-75 35-218 35-428v-175zm1366 647l882-134c38 170 113 301 229 389 114 89 274 134 481 134 228 0 399-42 513-126 78-58 116-137 116-234 0-67-21-123-63-167-43-41-142-80-293-115-709-156-1159-299-1349-428-263-180-394-430-394-749 0-287 113-530 341-725 227-197 579-295 1057-295 455 0 793 75 1014 222 221 149 373 368 456 658l-828 153c-36-129-103-229-202-297-100-69-241-104-424-104-232 0-397 32-498 98-66 46-99 105-99 178 0 63 29 115 87 159 79 59 353 141 822 248 467 105 794 236 980 391 184 157 276 375 276 653 0 305-128 567-383 786-254 219-630 328-1129 328-452 0-810-92-1075-275-264-183-436-433-517-748zm5287-2374v701h-601v1339c0 271 6 429 17 474 12 45 38 81 78 111 41 29 91 44 149 44 82 0 199-29 354-85l75 682c-205 87-436 131-695 131-158 0-301-27-428-79-127-53-220-123-280-207-60-85-101-199-124-343-18-101-28-309-28-619V3646h-403v-701h403v-661l882-513v1174h601zm3040 3322V1681h1950c490 0 846 41 1068 123 222 83 401 229 534 439 134 212 200 452 200 723 0 344-102 629-304 854-201 223-505 365-907 423 201 117 366 245 496 385 131 140 306 388 527 744l561 895h-1108l-670-998c-238-357-400-581-488-674-87-93-180-156-278-191-99-34-253-51-467-51l-187-1v1915h-927zm927-2647h685c444 0 722-18 833-56 110-37 196-102 259-194 62-92 94-206 94-344 0-155-42-279-124-374s-198-154-349-180c-75-10-300-15-676-15h-722v1163zm5451 1590l876 146c-113 322-290 566-534 734-242 169-546 252-912 252-577 0-1005-188-1282-566-219-302-329-684-329-1145 0-551 144-982 432-1294s652-468 1092-468c494 0 884 164 1170 490 285 327 422 827 410 1501h-2203c7 260 77 463 213 607 135 146 305 218 507 218 138 0 253-37 347-112 94-76 165-196 213-363zm50-888c-7-256-72-449-197-581-125-133-278-199-457-199-192 0-350 71-475 210s-187 329-185 570h1314zm1418-1377h820v488c106-168 250-303 431-407 182-104 384-157 605-157 385 0 713 152 981 454 269 302 404 724 404 1265 0 554-136 985-406 1293-271 307-600 461-986 461-183 0-350-36-500-109-148-74-305-198-471-376v1675h-878V2945zm870 1605c0 373 74 649 222 827 147 178 328 268 541 268 204 0 374-82 510-246 136-163 204-432 204-805 0-349-71-608-211-776-139-169-312-254-519-254-214 0-393 83-535 249s-212 411-212 737zm2865 9c0-292 73-575 216-848 144-273 348-482 612-625 264-144 558-217 884-217 502 0 914 164 1236 490 321 327 481 739 481 1238 0 502-162 919-486 1250s-732 495-1225 495c-305 0-594-68-871-206s-487-340-631-606c-143-266-216-589-216-971zm902 47c0 330 77 582 234 757 156 175 350 263 579 263 230 0 422-88 577-263 156-175 234-430 234-764 0-324-78-575-234-750-155-176-347-263-577-263-229 0-423 87-579 263-157 175-235 428-234 757zm3948 1661h-879V2945h816v472c140-223 266-371 377-441 112-70 238-107 380-107 201 0 393 56 579 167l-273 765c-147-95-285-143-412-143-124 0-227 33-313 102-86 67-152 190-202 367-49 177-73 549-73 1114v1026zm3449-3322v701h-600v1339c0 271 5 429 17 474s38 81 78 111c41 29 91 44 149 44 82 0 199-29 354-85l75 682c-205 87-436 131-695 131-158 0-301-27-428-79-128-53-221-123-280-207-60-85-101-199-124-343-18-101-28-309-28-619V3646h-404v-701h404v-661l882-513v1174h600zm302 2374l882-134c37 170 113 301 228 389 114 89 275 134 482 134 227 0 398-42 512-126 78-58 117-137 117-234 0-67-22-123-63-167-44-41-142-80-294-115-709-156-1159-299-1349-428-262-180-394-430-394-749 0-287 113-530 341-725 227-197 580-295 1057-295 455 0 794 75 1015 222 221 149 372 368 456 658l-829 153c-35-129-103-229-202-297-99-69-240-104-424-104-232 0-397 32-497 98-67 46-100 105-100 178 0 63 29 115 88 159 79 59 352 141 821 248 468 105 795 236 980 391 184 157 276 375 276 653 0 305-127 567-382 786s-631 328-1129 328c-453 0-811-92-1076-275-263-183-435-433-516-748z"/></svg>